[CENTER]
[quote="Quality Releaser ~ deep1007"][COLOR="Brown"][SIZE="4"][b]Problem-* Screenshots Wont Be Clear As It Is When It's Downloaded![/b][/SIZE][/COLOR]
[COLOR="Purple"][SIZE="4"][b]Reason-* Screenshots Have Been Taken From Windows Server![/b][/SIZE][/COLOR]
[COLOR="Green"][SIZE="4"][b]Solution-* Please Check The Sample Link Provided Below![/b][/SIZE][/COLOR][/quote]

[IMG]http://imageshack.us/a/img13/2981/deep1007ripperbanner.png[/IMG][/CENTER]

[CENTER][IMG]http://img23.imageshack.us/img23/1729/ejpi.jpg[/IMG][/CENTER]

[CENTER][IMG]http://imageshack.us/a/img809/3244/deep1007mediainfo.png[/IMG][/CENTER]
[CENTER][CODE]
General
Complete name                            : Kung Fu Panda - Good Croc, Bad Croc [2013].mkv
Format                                   : Matroska
Format version                           : Version 2
File size                                : 691 MiB
Duration                                 : 2h 46mn
Overall bit rate                         : 579 Kbps
Writing application                      : Lavf53.6.0
Writing library                          : Lavf53.6.0

Video
ID                                       : 1
Format                                   : AVC
Format/Info                              : Advanced Video Codec
Codec ID                                 : V_MPEG4/ISO/AVC
Duration                                 : 2h 46mn
Bit rate                                 : 536 Kbps
Width                                    : 1 280 pixels
Height                                   : 544 pixels
Display aspect ratio                     : 2.35:1
Frame rate mode                          : Constant
Frame rate                               : 30.000 fps
Bits/(Pixel*Frame)                       : 0.026
Stream size                              : 639 MiB (92%)
Default                                  : Yes
Forced                                   : No

Audio
ID                                       : 2
Format                                   : AC-3
Format/Info                              : Audio Coding 3
Mode extension                           : CM (complete main)
Format settings, Endianness              : Big
Codec ID                                 : A_AC3
Duration                                 : 2h 46mn
Bit rate mode                            : Constant
Bit rate                                 : 32.0 Kbps
Channel(s)                               : 2 channels
Channel positions                        : Front: L R
Sampling rate                            : 32.0 KHz
Bit depth                                : 16 bits
Compression mode                         : Lossy
Stream size                              : 38.2 MiB (6%)
Default                                  : Yes
Forced                                   : No
[/CODE][/CENTER]

[CENTER][IMG]http://imageshack.us/a/img844/7039/deep1007screenshots.png[/IMG][/CENTER]
[CENTER]
[IMG]http://i.imgbox.com/absHfjSW.png[/IMG]
[/CENTER]
SAMPLE =-[/b][/SIZE][/COLOR][/URL][/CENTER]

[CENTER][COLOR="Purple"][SIZE="3"][b]Don't Forget To Say "Thanks"! And "Comment"! If You Like My Post![/b][/SIZE][/COLOR]
[COLOR="Green"][SIZE="3"][b]If You Don't Reply, This Post Will "Die"![/b][/SIZE][/COLOR]
[COLOR="Brown"][SIZE="3"][b]Check Sample Before "Commenting"![/b][/SIZE][/COLOR][/CENTER]
[CENTER][IMG]http://img189.imageshack.us/img189/2664/xo7.png[/IMG][/CENTER]
[CENTER][COLOR="Red"][SIZE="3"][b]~ FAST SEEDING ~[/b][/SIZE][/COLOR][/CENTER]

[quote="deep1007"]Please Seed After downloading...and maintain your Ratio!
If Any Mistake, Forgive Me...All Suggestions, Instructions, Orders By Admin ETC, Heartly Accepted...
If You Want Any Other, Please PM Me...[/quote]